<svg width="177" height="36" viewBox="0 0 177 36" fill="none" xmlns="http://www.w3.org/2000/svg">
<g clip-path="url(#clip0_5835_52439)">
<path d="M10.591 20.6934C10.718 20.5694 10.9182 20.5657 11.0498 20.6845L17.8639 26.8406C17.935 26.905 17.9758 26.9965 17.9761 27.0929L18.0012 33.4519C18.0019 33.6398 17.8516 33.7928 17.6655 33.7937L14.1295 33.8078C13.9434 33.8085 13.7919 33.6568 13.7911 33.4689L13.7569 24.7527C13.7558 24.4607 13.4151 24.3057 13.1977 24.498L8.62483 28.5466C8.49359 28.6627 8.29618 28.6586 8.16992 28.5369L5.59497 26.0559C5.45635 25.9223 5.45564 25.6989 5.59349 25.5646L10.591 20.6934ZM30.5868 16.4402C30.7728 16.4338 30.9287 16.581 30.9351 16.7689L31.056 20.3381C31.0624 20.526 30.9166 20.6835 30.7305 20.69L22.1057 20.9877C21.8169 20.9977 21.6738 21.3463 21.8708 21.5601L26.0154 26.0544C26.1342 26.1834 26.1361 26.3827 26.0195 26.5138L23.6421 29.1883C23.514 29.3323 23.2931 29.3398 23.1559 29.2047L18.1843 24.3065C18.0579 24.1821 18.0481 23.98 18.1617 23.8437L24.0481 16.7785C24.1095 16.7048 24.1991 16.6608 24.2945 16.6575L30.5868 16.4402ZM8.90692 8.14754C9.04331 8.01165 9.26428 8.01776 9.39311 8.161L14.063 13.3533C14.1817 13.4853 14.1794 13.6875 14.0578 13.8168L7.75992 20.51C7.69419 20.5798 7.60219 20.6183 7.5068 20.6159L1.2129 20.4491C1.02685 20.4442 0.880028 20.2877 0.884883 20.0998L0.977544 16.5297C0.982425 16.3417 1.13726 16.1933 1.32334 16.1982L9.95022 16.4268C10.2392 16.4344 10.403 16.0952 10.2192 15.8699L6.35058 11.1311C6.2396 10.9951 6.24975 10.7961 6.37396 10.6723L8.90692 8.14754ZM18.3147 3.67188C18.5009 3.67188 18.6518 3.82431 18.6518 4.01232V12.7286C18.652 13.0205 18.9919 13.177 19.2101 12.9854L23.7988 8.95526C23.9306 8.83963 24.1278 8.84458 24.2537 8.96674L26.8188 11.4581C26.957 11.5922 26.9567 11.8154 26.8183 11.9493L21.8019 16.8005C21.6743 16.9238 21.4741 16.9269 21.343 16.8074L14.5532 10.6241C14.4823 10.5595 14.4417 10.4676 14.4417 10.3712V4.01232C14.4417 3.82431 14.5927 3.67189 14.7788 3.67188H18.3147Z" fill="url(#paint0_linear_5835_52439)"/>
<path d="M44.4055 29.239C42.8235 29.239 41.4752 28.9484 40.3607 28.3675C39.264 27.7865 38.3202 27.0057 37.5293 26.0252L39.6326 24.037C40.2978 24.8541 41.0259 25.4715 41.8168 25.889C42.6258 26.3066 43.5426 26.5154 44.5673 26.5154C45.7718 26.5154 46.6796 26.2431 47.2909 25.6984C47.9021 25.1537 48.2077 24.4183 48.2077 23.4923C48.2077 22.7479 47.992 22.1577 47.5605 21.722C47.1291 21.2862 46.3651 20.9594 45.2684 20.7415L43.5966 20.4419C41.7629 20.0969 40.3877 19.4886 39.4708 18.6171C38.554 17.7456 38.0956 16.5472 38.0956 15.022C38.0956 14.1868 38.2484 13.4333 38.554 12.7615C38.8776 12.0715 39.318 11.4995 39.8753 11.0456C40.4505 10.5735 41.1427 10.2104 41.9517 9.95618C42.7606 9.70199 43.6685 9.57488 44.6752 9.57488C46.0954 9.57488 47.3267 9.82908 48.3695 10.3375C49.4122 10.8277 50.3021 11.5449 51.0391 12.4891L48.9088 14.3956C48.4234 13.7601 47.8302 13.2517 47.1291 12.8704C46.4279 12.4891 45.5561 12.2984 44.5134 12.2984C43.4348 12.2984 42.5988 12.5163 42.0056 12.9521C41.4123 13.3879 41.1157 14.0234 41.1157 14.8586C41.1157 15.6575 41.3584 16.2567 41.8438 16.6561C42.3292 17.0374 43.0842 17.328 44.1089 17.5277L45.7808 17.8817C47.6684 18.2448 49.0436 18.8622 49.9065 19.7338C50.7874 20.6053 51.2278 21.8037 51.2278 23.3289C51.2278 24.2186 51.075 25.0265 50.7694 25.7528C50.4639 26.4792 50.0144 27.1056 49.4211 27.6321C48.8459 28.1406 48.1357 28.5399 47.2909 28.8305C46.446 29.1028 45.4841 29.239 44.4055 29.239ZM59.9015 29.239C58.8948 29.239 57.9959 29.0666 57.2049 28.7215C56.414 28.3765 55.7398 27.8862 55.1825 27.2508C54.6252 26.5971 54.1937 25.8163 53.8882 24.9085C53.6005 23.9825 53.4567 22.9566 53.4567 21.8309C53.4567 20.7052 53.6005 19.6883 53.8882 18.7805C54.1937 17.8545 54.6252 17.0738 55.1825 16.4383C55.7398 15.7846 56.414 15.2853 57.2049 14.9403C57.9959 14.5953 58.8948 14.4228 59.9015 14.4228C60.9262 14.4228 61.825 14.6044 62.598 14.9675C63.389 15.3307 64.0453 15.8391 64.5665 16.4927C65.0878 17.1282 65.4744 17.8727 65.7261 18.7261C65.9957 19.5794 66.1305 20.4964 66.1305 21.4768V22.5935H56.5038V23.0565C56.5038 24.1459 56.8185 25.0447 57.4476 25.7528C58.0948 26.4428 59.0116 26.7878 60.1981 26.7878C61.061 26.7878 61.7891 26.5971 62.3823 26.2158C62.9756 25.8346 63.479 25.3171 63.8924 24.6634L65.6182 26.3793C65.0969 27.2508 64.3419 27.9499 63.3531 28.4764C62.3643 28.9849 61.2139 29.239 59.9015 29.239ZM59.9015 16.7379C59.3981 16.7379 58.9307 16.8286 58.4993 17.0102C58.0859 17.1918 57.7262 17.446 57.4206 17.7728C57.133 18.0996 56.9083 18.49 56.7465 18.9439C56.5847 19.3979 56.5038 19.8972 56.5038 20.4419V20.6325H63.0295V20.3602C63.0295 19.2708 62.7509 18.3992 62.1936 17.7456C61.6362 17.0738 60.8722 16.7379 59.9015 16.7379ZM74.5347 29.239C73.5281 29.239 72.6293 29.0666 71.8382 28.7215C71.0472 28.3765 70.382 27.8862 69.8427 27.2508C69.3034 26.5971 68.89 25.8163 68.6023 24.9085C68.3148 23.9825 68.1708 22.9566 68.1708 21.8309C68.1708 20.7052 68.3148 19.6883 68.6023 18.7805C68.89 17.8545 69.3034 17.0738 69.8427 16.4383C70.382 15.7846 71.0472 15.2853 71.8382 14.9403C72.6293 14.5953 73.5281 14.4228 74.5347 14.4228C75.9369 14.4228 77.0875 14.7406 77.9863 15.3761C78.8853 16.0116 79.5414 16.8559 79.9548 17.909L77.5279 19.0529C77.3302 18.3992 76.9796 17.8817 76.4762 17.5004C75.9909 17.101 75.3437 16.9013 74.5347 16.9013C73.4561 16.9013 72.6382 17.2463 72.0808 17.9362C71.5415 18.6081 71.2719 19.4886 71.2719 20.5781V23.111C71.2719 24.2004 71.5415 25.0902 72.0808 25.7801C72.6382 26.4519 73.4561 26.7878 74.5347 26.7878C75.3976 26.7878 76.0808 26.5789 76.5841 26.1614C77.1055 25.7256 77.519 25.1537 77.8245 24.4455L80.0627 25.6439C79.5953 26.806 78.8942 27.6956 77.9593 28.313C77.0246 28.9304 75.883 29.239 74.5347 29.239ZM91.0854 26.5699H90.9775C90.8516 26.915 90.6809 27.2508 90.4651 27.5776C90.2675 27.9045 90.0067 28.195 89.6831 28.4492C89.3776 28.6853 89.0001 28.8759 88.5506 29.0211C88.1191 29.1663 87.6157 29.239 87.0405 29.239C85.5844 29.239 84.4518 28.767 83.6429 27.8228C82.8519 26.8785 82.4564 25.5259 82.4564 23.7646V14.7497H85.3956V23.3833C85.3956 25.5804 86.2944 26.6789 88.0922 26.6789C88.4697 26.6789 88.8383 26.6334 89.1978 26.5427C89.5572 26.4337 89.8719 26.2793 90.1416 26.0797C90.4293 25.88 90.6539 25.6257 90.8157 25.3171C90.9955 25.0085 91.0854 24.6452 91.0854 24.2276V14.7497H94.0246V28.9122H91.0854V26.5699ZM97.9636 28.9122V14.7497H100.903V17.4732H101.038C101.236 16.7469 101.649 16.1114 102.278 15.5667C102.907 15.022 103.779 14.7497 104.894 14.7497H105.676V17.6094H104.516C103.348 17.6094 102.449 17.8 101.82 18.1813C101.209 18.5626 100.903 19.1256 100.903 19.8699V28.9122H97.9636ZM113.386 29.239C112.379 29.239 111.48 29.0666 110.69 28.7215C109.899 28.3765 109.224 27.8862 108.667 27.2508C108.11 26.5971 107.678 25.8163 107.373 24.9085C107.085 23.9825 106.941 22.9566 106.941 21.8309C106.941 20.7052 107.085 19.6883 107.373 18.7805C107.678 17.8545 108.11 17.0738 108.667 16.4383C109.224 15.7846 109.899 15.2853 110.69 14.9403C111.48 14.5953 112.379 14.4228 113.386 14.4228C114.411 14.4228 115.31 14.6044 116.083 14.9675C116.874 15.3307 117.53 15.8391 118.051 16.4927C118.572 17.1282 118.959 17.8727 119.211 18.7261C119.48 19.5794 119.615 20.4964 119.615 21.4768V22.5935H109.988V23.0565C109.988 24.1459 110.303 25.0447 110.932 25.7528C111.579 26.4428 112.496 26.7878 113.683 26.7878C114.546 26.7878 115.274 26.5971 115.867 26.2158C116.46 25.8346 116.964 25.3171 117.377 24.6634L119.103 26.3793C118.582 27.2508 117.826 27.9499 116.838 28.4764C115.849 28.9849 114.698 29.239 113.386 29.239ZM113.386 16.7379C112.883 16.7379 112.415 16.8286 111.984 17.0102C111.57 17.1918 111.211 17.446 110.905 17.7728C110.618 18.0996 110.393 18.49 110.231 18.9439C110.069 19.3979 109.988 19.8972 109.988 20.4419V20.6325H116.514V20.3602C116.514 19.2708 116.236 18.3992 115.678 17.7456C115.121 17.0738 114.357 16.7379 113.386 16.7379ZM125.592 28.9122C124.586 28.9122 123.831 28.658 123.327 28.1496C122.842 27.6231 122.599 26.8967 122.599 25.9707V8.75781H125.538V26.4882H127.48V28.9122H125.592ZM138.41 14.7497H141.242L135.336 31.7174C135.174 32.1895 134.986 32.589 134.77 32.9158C134.572 33.2609 134.33 33.5332 134.042 33.7329C133.772 33.9508 133.44 34.1052 133.044 34.1959C132.649 34.3048 132.181 34.3593 131.642 34.3593H129.943V31.9353H132.316L133.125 29.5386L128.029 14.7497H130.968L133.772 23.0838L134.581 26.1614H134.716L135.606 23.0838L138.41 14.7497Z" fill="#131313"/>
<path d="M147.274 28.9039C146.249 28.9039 145.476 28.6406 144.954 28.1141C144.433 27.5694 144.172 26.8068 144.172 25.8263V17.1654H141.988V14.7414H143.175C143.66 14.7414 143.993 14.6325 144.172 14.4146C144.37 14.1967 144.469 13.8426 144.469 13.3524V10.8739H147.112V14.7414H150.051V17.1654H147.112V26.48H149.835V28.9039H147.274ZM154.453 12.2085C153.842 12.2085 153.392 12.0632 153.104 11.7727C152.835 11.4822 152.7 11.11 152.7 10.6561V10.1931C152.7 9.73912 152.835 9.36691 153.104 9.0764C153.392 8.78588 153.842 8.64062 154.453 8.64062C155.064 8.64062 155.504 8.78588 155.774 9.0764C156.044 9.36691 156.178 9.73912 156.178 10.1931V10.6561C156.178 11.11 156.044 11.4822 155.774 11.7727C155.504 12.0632 155.064 12.2085 154.453 12.2085ZM152.97 14.7414H155.909V28.9039H152.97V14.7414ZM158.272 28.9039L163.207 21.741L158.407 14.7414H161.805L164.96 19.6711H165.041L168.277 14.7414H171.405L166.605 21.7137L171.485 28.9039H168.088L164.852 23.7564H164.771L161.4 28.9039H158.272Z" fill="#131313"/>
</g>
<defs>
<linearGradient id="paint0_linear_5835_52439" x1="5.13923" y1="3.85938" x2="24.5678" y2="33.5737" gradientUnits="userSpaceOnUse">
<stop stop-color="#036E6E"/>
<stop offset="1" stop-color="#41C28D"/>
</linearGradient>
<clipPath id="clip0_5835_52439">
<rect width="176" height="35.4729" fill="white"/>
</clipPath>
</defs>
</svg>
