<svg width="31" height="31" viewBox="0 0 31 31" fill="none" xmlns="http://www.w3.org/2000/svg">
<path d="M10.423 17.1934C10.55 17.0694 10.7502 17.0657 10.8818 17.1845L17.6959 23.3406C17.767 23.405 17.8078 23.4965 17.8082 23.5929L17.8333 29.9519C17.8339 30.1398 17.6836 30.2928 17.4975 30.2937L13.9616 30.3078C13.7754 30.3085 13.624 30.1568 13.6232 29.9689L13.5889 21.2527C13.5878 20.9607 13.2471 20.8057 13.0297 20.998L8.45686 25.0466C8.32562 25.1627 8.12821 25.1586 8.00195 25.0369L5.427 22.5559C5.28838 22.4223 5.28767 22.1989 5.42552 22.0646L10.423 17.1934ZM30.4188 12.9402C30.6049 12.9338 30.7607 13.081 30.7672 13.2689L30.888 16.8381C30.8944 17.026 30.7486 17.1835 30.5625 17.19L21.9378 17.4877C21.6489 17.4977 21.5058 17.8463 21.7028 18.0601L25.8474 22.5544C25.9663 22.6834 25.9681 22.8827 25.8515 23.0138L23.4741 25.6883C23.3461 25.8323 23.1251 25.8398 22.9879 25.7047L18.0163 20.8065C17.8899 20.6821 17.8801 20.48 17.9937 20.3437L23.8801 13.2785C23.9415 13.2048 24.0311 13.1608 24.1265 13.1575L30.4188 12.9402ZM8.73895 4.64754C8.87535 4.51165 9.09631 4.51776 9.22514 4.661L13.8951 9.85329C14.0137 9.9853 14.0114 10.1875 13.8898 10.3168L7.59195 17.01C7.52622 17.0798 7.43422 17.1183 7.33883 17.1159L1.04493 16.9491C0.858886 16.9442 0.712059 16.7877 0.716914 16.5998L0.809575 13.0297C0.814456 12.8417 0.969289 12.6933 1.15537 12.6982L9.78225 12.9268C10.0712 12.9344 10.2351 12.5952 10.0512 12.3699L6.18261 7.63108C6.07163 7.49509 6.08178 7.29609 6.20599 7.17228L8.73895 4.64754ZM18.1467 0.171875C18.333 0.171875 18.4838 0.324309 18.4838 0.51232V9.22859C18.484 9.52054 18.8239 9.67699 19.0422 9.48542L23.6309 5.45526C23.7627 5.33963 23.9599 5.34458 24.0858 5.46674L26.6509 7.95807C26.7891 8.09222 26.7887 8.31545 26.6503 8.44929L21.6339 13.3005C21.5063 13.4238 21.3061 13.4269 21.175 13.3074L14.3852 7.12408C14.3143 7.05953 14.2738 6.96764 14.2738 6.87124V0.51232C14.2738 0.324309 14.4247 0.171892 14.6108 0.171875H18.1467Z" fill="url(#paint0_linear_5316_39310)"/>
<defs>
<linearGradient id="paint0_linear_5316_39310" x1="4.97126" y1="0.359376" x2="24.3998" y2="30.0737" gradientUnits="userSpaceOnUse">
<stop stop-color="#036E6E"/>
<stop offset="1" stop-color="#41C28D"/>
</linearGradient>
</defs>
</svg>
